<?xml version="1.0" encoding="UTF-8"?>
<!-- NomaDomo 仮ロゴ: 緑キャラメル (奥) + 赤キャラメル (前)。
     最終版は /public/logo-camel.png に差し替えて。 -->
<svg xmlns="http://www.w3.org/2000/svg" viewBox="0 0 200 140" width="200" height="140">
  <!-- 緑のラクダ (背後にやや左にずらして配置) -->
  <g transform="translate(-6,4)" fill="#2ecc71">
    <path d="M40 90
             C 38 72, 52 64, 60 64
             L 62 50
             C 62 44, 70 44, 70 50
             L 70 64
             C 76 60, 90 58, 100 64
             C 108 56, 116 56, 122 66
             C 130 64, 140 70, 142 88
             L 140 110 L 132 110 L 130 96
             L 110 96 L 108 110 L 100 110 L 98 96
             L 78 96 L 76 110 L 68 110 L 66 96
             L 50 96 L 48 110 L 40 110 Z"/>
  </g>
  <!-- 赤のラクダ (前) -->
  <g fill="#ad001c">
    <path d="M40 90
             C 38 72, 52 64, 60 64
             L 62 50
             C 62 44, 70 44, 70 50
             L 70 64
             C 76 60, 90 58, 100 64
             C 108 56, 116 56, 122 66
             C 130 64, 140 70, 142 88
             L 140 110 L 132 110 L 130 96
             L 110 96 L 108 110 L 100 110 L 98 96
             L 78 96 L 76 110 L 68 110 L 66 96
             L 50 96 L 48 110 L 40 110 Z"/>
  </g>
</svg>
